# xmcd
#
# Track frame offsets:
#	150
#	14270
#	31054
#	44546
#	59901
#	75923
#	93633
#	107704
#	124012
#	137653
#	152162
#	169106
#	182890
#	198119
#	212741
#	226490
#	239568
#	253813
#	268743
#	286774
#	305072
#	322590
#
# Disc length: 4513 seconds
#
# Revision: 1
# Processed by: cddbd v1.5.2PL0 Copyright (c) Steve Scherf et al.
# Submitted via: dBpowerAMP V4.0
#
DISCID=36119f16
DTITLE=Various Artist - Hott Country Volume 273 Can
DYEAR=2018
DGENRE=Country
TTITLE0=Old Dominion - Make It Sweet
TTITLE1=Dean Brody - Dose Of Country
TTITLE2=Thomas Rhett - Sixteen
TTITLE3=Brett Kissel - Cecilia
TTITLE4=Tim McGraw - Neon Church
TTITLE5=Luke Bryan - What Makes You Country
TTITLE6=Aaron Pritchett - Better When I Do
TTITLE7=Brett Young - Here Tonight
TTITLE8=Jojo Mason - Future
TTITLE9=Kelsea Ballerini - Miss Me More
TTITLE10=Lauren Alaina - Ladies In The 90's
TTITLE11=Aaron Goodvin - You Are
TTITLE12=Tenille Arts - Mad Crazy Love
TTITLE13=Brothers Osborne - I Don't Remember Me (Before You)
TTITLE14=Raelynn - Tailgate
TTITLE15=Pistol Annies - Got My Name Changed Back
TTITLE16=Steven Lee Olsen - Timing Is Everything
TTITLE17=Adam Hambrick - Rockin' All Night Long
TTITLE18=Jessica Mitchell - Maybe It's Me
TTITLE19=Josh Gracin - Good For You
TTITLE20=Kid Rock - Po Dunk
TTITLE21=Sons Of Daughters - Ain't Gonna Be Lonely Long
EXTD=
EXTT0=
EXTT1=
EXTT2=
EXTT3=
EXTT4=
EXTT5=
EXTT6=
EXTT7=
EXTT8=
EXTT9=
EXTT10=
EXTT11=
EXTT12=
EXTT13=
EXTT14=
EXTT15=
EXTT16=
EXTT17=
EXTT18=
EXTT19=
EXTT20=
EXTT21=
PLAYORDER=
